<svg xmlns="http://www.w3.org/2000/svg" height='135px' width='110px'
    style="left: 0;top: 0; opacity: 1;" onclick="visible('both-eye')">
    <!-- outer-shape -->
    <path d="M4,50 Q19,-25 34,50 L54,50 L74,50 Q89,-25 104,50 L106,59 Q108,64 102,69 L54,110 L6,69 Q0,64 2,59"
    fill="#ff6666"></path>

    <!-- bow-tie -->
    <path stroke="black" fill="rgb(255, 150, 150)" d="M25,110 C25,60 83,160 83,110 C83,60 25,160 25,110 Z"/>
    <circle r="2" fill="white">
    <animateMotion dur="1.5s" repeatCount="indefinite" path="M25,110 C25,60 83,160 83,110 C83,60 25,160 25,110 Z"/>
    </circle>
    <circle cx="54" cy="110" r="3" fill="black"></circle>

    <!-- eye -->
    <path d="M50,80 C11,30 11,80 44,80 Z" fill="rgb(255, 222, 179)" stroke="#ff4444"></path>
    <path d="M58,80 C97,30 97,80 63,80 Z" fill="black" stroke="#ff4444"></path>
    <circle r="2" fill="white">
    <animateMotion dur="2s" repeatCount="1" path="M50,80 C11,30 11,80 44,80 Z" />
    <animate attributeName="opacity" from="1" to="0" begin="1.9s" dur="0.1s" fill="freeze" />
    </circle>
    <circle r="2" fill="white">
    <animateMotion dur="2s" repeatCount="1" path="M58,80 C97,30 97,80 63,80 Z" />
    <animate attributeName="opacity" from="1" to="0" begin="1.9s" dur="0.1s" fill="freeze" />
    </circle>
</svg>